<mxfile host="65bd71144e">
    <diagram id="5EAIfrnqcpWaD6AokUD5" name="Page-1">
        <mxGraphModel dx="2453" dy="2046" grid="0" gridSize="10" guides="1" tooltips="1" connect="1" arrows="1" fold="1" page="0" pageScale="1" pageWidth="850" pageHeight="1100" math="0" shadow="0">
            <root>
                <mxCell id="0"/>
                <mxCell id="1" parent="0"/>
                <mxCell id="82" style="edgeStyle=none;html=1;entryX=0;entryY=0.5;entryDx=0;entryDy=0;" edge="1" parent="1" source="2" target="29">
                    <mxGeometry relative="1" as="geometry"/>
                </mxCell>
                <mxCell id="2" value="Admin" style="shape=umlActor;verticalLabelPosition=bottom;verticalAlign=top;html=1;outlineConnect=0;" vertex="1" parent="1">
                    <mxGeometry x="127" y="505" width="30" height="60" as="geometry"/>
                </mxCell>
                <mxCell id="3" value="User" style="shape=umlActor;verticalLabelPosition=bottom;verticalAlign=top;html=1;outlineConnect=0;" vertex="1" parent="1">
                    <mxGeometry x="116" y="180" width="30" height="60" as="geometry"/>
                </mxCell>
                <mxCell id="57" value="Servicio de geolocalizacion" style="shape=umlActor;verticalLabelPosition=bottom;verticalAlign=top;html=1;outlineConnect=0;" vertex="1" parent="1">
                    <mxGeometry x="121" y="293" width="30" height="60" as="geometry"/>
                </mxCell>
                <mxCell id="58" value="Pasarela de pago" style="shape=umlActor;verticalLabelPosition=bottom;verticalAlign=top;html=1;outlineConnect=0;" vertex="1" parent="1">
                    <mxGeometry x="125" y="401" width="30" height="60" as="geometry"/>
                </mxCell>
                <mxCell id="64" value="ranking y content" style="swimlane;whiteSpace=wrap;html=1;" vertex="1" parent="1">
                    <mxGeometry x="528" y="-402" width="496" height="228" as="geometry"/>
                </mxCell>
                <mxCell id="19" value="RANKING&lt;div&gt;MUNICIPALITY&lt;/div&gt;" style="rounded=1;whiteSpace=wrap;html=1;" vertex="1" parent="64">
                    <mxGeometry x="11" y="34" width="103" height="67" as="geometry"/>
                </mxCell>
                <mxCell id="20" value="RECOMMENDATION" style="rounded=1;whiteSpace=wrap;html=1;" vertex="1" parent="64">
                    <mxGeometry x="11" y="113" width="126" height="69" as="geometry"/>
                </mxCell>
                <mxCell id="11" value="&lt;div&gt;HISTORY/&lt;/div&gt;PROGRESS" style="rounded=1;whiteSpace=wrap;html=1;" vertex="1" parent="64">
                    <mxGeometry x="149" y="113" width="102.5" height="70" as="geometry"/>
                </mxCell>
                <mxCell id="69" value="RANKING&lt;div&gt;GLOBAL&lt;/div&gt;" style="rounded=1;whiteSpace=wrap;html=1;" vertex="1" parent="64">
                    <mxGeometry x="140" y="34" width="103" height="67" as="geometry"/>
                </mxCell>
                <mxCell id="65" value="explorer and retos" style="swimlane;whiteSpace=wrap;html=1;" vertex="1" parent="1">
                    <mxGeometry x="528" y="-166" width="496" height="228" as="geometry"/>
                </mxCell>
                <mxCell id="9" value="QR" style="rounded=1;whiteSpace=wrap;html=1;" vertex="1" parent="65">
                    <mxGeometry x="8.5" y="33" width="113" height="62" as="geometry"/>
                </mxCell>
                <mxCell id="13" value="DISCOVER" style="rounded=1;whiteSpace=wrap;html=1;" vertex="1" parent="65">
                    <mxGeometry x="144" y="34.5" width="108" height="63" as="geometry"/>
                </mxCell>
                <mxCell id="14" value="ACTIVITIES" style="rounded=1;whiteSpace=wrap;html=1;" vertex="1" parent="65">
                    <mxGeometry x="280" y="30.5" width="108" height="67" as="geometry"/>
                </mxCell>
                <mxCell id="66" value="Suscribe" style="swimlane;whiteSpace=wrap;html=1;" vertex="1" parent="1">
                    <mxGeometry x="526" y="71" width="496" height="228" as="geometry"/>
                </mxCell>
                <mxCell id="50" value="PLANS" style="rounded=1;whiteSpace=wrap;html=1;" vertex="1" parent="66">
                    <mxGeometry x="13" y="37" width="108" height="69.5" as="geometry"/>
                </mxCell>
                <mxCell id="45" value="BUY" style="rounded=1;whiteSpace=wrap;html=1;" vertex="1" parent="66">
                    <mxGeometry x="139" y="40" width="108" height="66" as="geometry"/>
                </mxCell>
                <mxCell id="47" value="PAY" style="rounded=1;whiteSpace=wrap;html=1;" vertex="1" parent="66">
                    <mxGeometry x="13" y="119" width="108" height="68.5" as="geometry"/>
                </mxCell>
                <mxCell id="67" value="Account" style="swimlane;whiteSpace=wrap;html=1;startSize=23;" vertex="1" parent="1">
                    <mxGeometry x="526" y="311" width="496" height="228" as="geometry"/>
                </mxCell>
                <mxCell id="17" value="FORGOT&lt;div&gt;PASSWORD&lt;/div&gt;" style="rounded=1;whiteSpace=wrap;html=1;" vertex="1" parent="67">
                    <mxGeometry x="10.5" y="35" width="108" height="75" as="geometry"/>
                </mxCell>
                <mxCell id="42" value="DELETE&amp;nbsp;&lt;div&gt;ACCOUNT&lt;/div&gt;" style="rounded=1;whiteSpace=wrap;html=1;" vertex="1" parent="67">
                    <mxGeometry x="134" y="37" width="113" height="71" as="geometry"/>
                </mxCell>
                <mxCell id="16" value="LOGIN" style="rounded=1;whiteSpace=wrap;html=1;" vertex="1" parent="67">
                    <mxGeometry x="263" y="37" width="108" height="63" as="geometry"/>
                </mxCell>
                <mxCell id="31" value="DEMO" style="rounded=1;whiteSpace=wrap;html=1;" vertex="1" parent="67">
                    <mxGeometry x="379" y="38" width="108" height="61" as="geometry"/>
                </mxCell>
                <mxCell id="52" value="TRIAL" style="rounded=1;whiteSpace=wrap;html=1;" vertex="1" parent="67">
                    <mxGeometry x="13" y="120" width="108" height="69.5" as="geometry"/>
                </mxCell>
                <mxCell id="15" value="REGISTER USER" style="rounded=1;whiteSpace=wrap;html=1;" vertex="1" parent="67">
                    <mxGeometry x="136.5" y="120" width="108" height="74" as="geometry"/>
                </mxCell>
                <mxCell id="18" value="&lt;div&gt;MODIFY&lt;/div&gt;PASSWORD" style="rounded=1;whiteSpace=wrap;html=1;" vertex="1" parent="67">
                    <mxGeometry x="260" y="113.25" width="108" height="83" as="geometry"/>
                </mxCell>
                <mxCell id="70" value="Admin" style="swimlane;whiteSpace=wrap;html=1;startSize=23;" vertex="1" parent="1">
                    <mxGeometry x="522" y="552" width="496" height="228" as="geometry"/>
                </mxCell>
                <mxCell id="29" value="ADD OR MODIFY ACTIVITIES" style="rounded=1;whiteSpace=wrap;html=1;" vertex="1" parent="70">
                    <mxGeometry x="10" y="38" width="108" height="66" as="geometry"/>
                </mxCell>
                <mxCell id="83" style="edgeStyle=none;html=1;exitX=0;exitY=0.5;exitDx=0;exitDy=0;" edge="1" parent="1" source="47" target="58">
                    <mxGeometry relative="1" as="geometry"/>
                </mxCell>
            </root>
        </mxGraphModel>
    </diagram>
</mxfile>